<?xml version="1.0" standalone="no"?><!DOCTYPE svg PUBLIC "-//W3C//DTD SVG 1.1//EN" "http://www.w3.org/Graphics/SVG/1.1/DTD/svg11.dtd"><svg t="1527479568600" class="icon" style="" viewBox="0 0 1024 1024" version="1.1" xmlns="http://www.w3.org/2000/svg" p-id="2087" xmlns:xlink="http://www.w3.org/1999/xlink" width="200" height="200"><defs><style type="text/css"></style></defs><path d="M988.8 28.8c19.2 19.2 19.2 51.2 0 70.4l-886.4 896c-19.2 19.2-48 19.2-67.2 0-19.2-19.2-19.2-51.2 0-70.4L921.6 28.8c19.2-16 48-16 67.2 0z" fill="#e6e6e6" p-id="2088"></path><path d="M28.8 35.2C48 16 76.8 16 96 35.2l896 883.2c19.2 19.2 19.2 48 0 70.4-19.2 19.2-48 19.2-67.2 0L32 105.6C12.8 86.4 9.6 54.4 28.8 35.2z" fill="#e6e6e6" p-id="2089"></path></svg>