<?xml version="1.0" standalone="no"?><!DOCTYPE svg PUBLIC "-//W3C//DTD SVG 1.1//EN" "http://www.w3.org/Graphics/SVG/1.1/DTD/svg11.dtd"><svg t="1527571908655" class="icon" style="" viewBox="0 0 1664 1024" version="1.1" xmlns="http://www.w3.org/2000/svg" p-id="21749" xmlns:xlink="http://www.w3.org/1999/xlink" width="52" height="32"><defs><style type="text/css"></style></defs><path d="M273.919658 258.432957L47.61594 463.8727a57.535928 57.535928 0 0 0 0 86.719892l226.175718 205.439743v140.287825c0 70.527912 57.087929 127.67984 128.319839 127.67984h1133.566583A127.99984 127.99984 0 0 0 1663.99792 896.38416V127.61712A127.74384 127.74384 0 0 0 1535.74208 0.00128H402.175497a128.12784 128.12784 0 0 0-128.319839 127.67984v130.751837z m389.759512 443.135446c-102.911871 0-186.431767-86.015892-186.431767-191.99976 0-106.111867 83.519896-192.06376 186.495767-192.06376 102.911871 0 186.431767 85.951893 186.431767 191.99976s-83.519896 191.99976-186.431767 191.99976z m597.951253 0c-102.975871 0-186.431767-86.015892-186.431767-191.99976 0-106.111867 83.455896-192.06376 186.431767-192.06376 103.039871 0 186.431767 85.951893 186.431767 191.99976s-83.455896 191.99976-186.431767 191.99976z" p-id="21750" fill="#90a8d5"></path></svg>
