<?xml version="1.0" standalone="no"?><!DOCTYPE svg PUBLIC "-//W3C//DTD SVG 1.1//EN" "http://www.w3.org/Graphics/SVG/1.1/DTD/svg11.dtd"><svg t="1527059673800" class="icon" style="" viewBox="0 0 1024 1024" version="1.1" xmlns="http://www.w3.org/2000/svg" p-id="5935" xmlns:xlink="http://www.w3.org/1999/xlink" width="200" height="200"><defs><style type="text/css"></style></defs><path d="M542.72 808.106667v98.133333c0 19.626667-8.533333 31.573333-29.866667 31.573333-18.773333 0-29.866667-9.386667-30.72-28.16-0.853333-26.453333-0.853333-52.906667 0-79.36 0.853333-17.066667-5.12-23.893333-23.04-23.04-23.04 1.706667-46.933333 0.853333-69.973333 0-28.16-0.853333-41.813333-11.093333-40.96-32.426666 0.853333-20.48 11.946667-29.013333 40.106667-29.013334 23.893333 0 48.64-0.853333 72.533333 0 15.36 0.853333 21.333333-5.12 20.48-20.48v-7.68c0.853333-43.52 0.853333-43.52-41.813333-54.613333-133.973333-34.133333-222.72-145.066667-226.133334-280.746667C209.92 217.6 349.866667 81.066667 518.826667 85.333333c150.186667 3.413333 272.213333 116.053333 290.133333 257.706667 17.92 139.946667-72.533333 290.986667-239.786667 325.12-22.186667 4.266667-26.453333 12.8-26.453333 32.426667 0.853333 56.32-2.56 45.226667 46.933333 46.08h55.466667c18.773333 0 29.866667 9.386667 31.573333 28.16 1.706667 21.333333-11.946667 31.573333-29.866666 32.426666-24.746667 2.56-50.346667 0.853333-75.093334 0.853334h-29.013333zM512 147.626667c-130.56 0-236.373333 103.253333-236.373333 229.546666 0 133.12 104.106667 236.373333 237.226666 236.373334 128.853333 0 235.52-104.96 235.52-231.253334 0.853333-130.56-104.106667-234.666667-236.373333-234.666666z" fill="#ffffff" p-id="5936"></path></svg>