<?xml version="1.0" standalone="no"?><!DOCTYPE svg PUBLIC "-//W3C//DTD SVG 1.1//EN" "http://www.w3.org/Graphics/SVG/1.1/DTD/svg11.dtd"><svg t="1527041694935" class="icon" style="" viewBox="0 0 1024 1024" version="1.1" xmlns="http://www.w3.org/2000/svg" p-id="1899" xmlns:xlink="http://www.w3.org/1999/xlink" width="200" height="200"><defs><style type="text/css"></style></defs><path d="M521.841 4.001c-208.765 0-385.596 177.824-385.596 388.456 0 220.577 204.93 446.145 342.779 604.678 0.529 0.64 22.799 25.364 50.261 25.364 0.063 0 2.331 0 2.423 0 27.448 0 49.578-24.725 50.137-25.364 129.366-148.714 318.287-393.924 318.287-604.678C900.133 181.825 762.219 4.001 521.841 4.001zM534.633 954.443c-1.137 1.12-2.735 2.378-4.182 3.39-1.444-1.012-3.062-2.27-4.212-3.39l-16.676-19.146c-130.688-149.928-309.661-355.241-309.661-542.84 0-176.067 147.426-324.814 321.937-324.814 217.348 0 314.635 163.122 314.635 324.814C836.475 534.876 734.93 723.967 534.633 954.443z" p-id="1900" fill="#222"></path><path d="M519.324 196.745c-105.463 0-190.972 85.507-190.972 190.972 0 105.462 85.508 190.973 190.972 190.973 105.462 0 190.971-85.511 190.971-190.973C710.295 282.252 624.786 196.745 519.324 196.745zM519.324 515.03c-70.201 0-128.777-58.498-128.777-128.712 0-70.201 57.116-127.314 127.314-127.314 70.216 0 127.313 57.114 127.313 127.314C645.176 456.532 589.539 515.03 519.324 515.03z" p-id="1901" fill="#222"></path></svg>