<?xml version="1.0" standalone="no"?><!DOCTYPE svg PUBLIC "-//W3C//DTD SVG 1.1//EN" "http://www.w3.org/Graphics/SVG/1.1/DTD/svg11.dtd"><svg t="1527560108838" class="icon" style="" viewBox="0 0 1024 1024" version="1.1" xmlns="http://www.w3.org/2000/svg" p-id="5364" xmlns:xlink="http://www.w3.org/1999/xlink" width="200" height="200"><defs><style type="text/css"></style></defs><path d="M941.307 121.47899999999998c-1.308-19.881-18.355-37.067-38.075-38.385L594.05 71.945c-19.719999999999995-1.318-34.645 13.728-33.337 33.608 1.309 19.879 18.355 37.063 38.075 38.385l221.13 7.973L649.7089999999998 323.5c-61.168000000000006-51.789-139.93-83.056-225.977-83.056-194.503 0-352.178 159.317-352.178 355.846 0 196.527 157.675 355.844 352.178 355.844 194.505 0 352.178-159.317 352.178-355.844 0-82.07899999999998-27.775-157.449-73.979-217.652l171.14-172.528 7.884999999999998 222.27999999999997c1.309 19.879 18.355 37.067 38.075 38.385 19.722 1.32 34.64699999999999-13.726 33.337-33.606l-11.061-311.69zM423.731 878.7649999999999c-153.736 0-278.807-126.71799999999998-278.807-282.474 0-155.758 125.07199999999999-282.476 278.807-282.476s278.807 126.71799999999998 278.807 282.476c0 155.756-125.071 282.474-278.807 282.474z" fill="#e6e6e6" p-id="5365"></path></svg>