<?xml version="1.0" standalone="no"?><!DOCTYPE svg PUBLIC "-//W3C//DTD SVG 1.1//EN" "http://www.w3.org/Graphics/SVG/1.1/DTD/svg11.dtd"><svg t="1527571381606" class="icon" style="" viewBox="0 0 1024 1024" version="1.1" xmlns="http://www.w3.org/2000/svg" p-id="3003" xmlns:xlink="http://www.w3.org/1999/xlink" width="32" height="32"><defs><style type="text/css"></style></defs><path d="M143.36 880.64H573.44c206.35648 0 348.16-164.53632 348.16-389.12A389.12 389.12 0 0 0 532.48 102.4c-224.58368 0-389.12 141.80352-389.12 348.16v430.08zM102.4 450.56c0-230.44096 184.1152-389.12 430.08-389.12 237.52704 0 430.08 192.55296 430.08 430.08 0 245.9648-158.67904 430.08-389.12 430.08H102.4V450.56z m204.8 0h409.6a20.48 20.48 0 1 0 0-40.96h-409.6a20.48 20.48 0 0 0 0 40.96z m20.48 163.84h286.72a20.48 20.48 0 1 0 0-40.96H327.68a20.48 20.48 0 1 0 0 40.96z" p-id="3004" fill="#ffffff"></path></svg>