<?xml version="1.0" standalone="no"?><!DOCTYPE svg PUBLIC "-//W3C//DTD SVG 1.1//EN" "http://www.w3.org/Graphics/SVG/1.1/DTD/svg11.dtd"><svg t="1527057326197" class="icon" style="" viewBox="0 0 1024 1024" version="1.1" xmlns="http://www.w3.org/2000/svg" p-id="2388" xmlns:xlink="http://www.w3.org/1999/xlink" width="200" height="200"><defs><style type="text/css"></style></defs><path d="M956.635429 88.897829a29.242514 29.242514 0 0 0-23.581258-23.581258c-3.013486-0.555886-74.986057-13.370514-165.566171-13.370514-144.164571 0-248.641829 31.363657-310.491429 93.227886l-7.855542 7.840914c-31.992686 31.934171-70.9632 70.890057-106.305829 112.683886-32.9728-1.360457-160.709486-1.038629-216.020114 80.062171-56.641829 83.061029-71.957943 179.331657-72.572343 183.383772a29.257143 29.257143 0 0 0 25.439086 33.514057l184.510171 22.016c12.097829 32.943543 28.496457 63.0784 46.723657 86.776686l-44.968228 44.9536a29.257143 29.257143 0 1 0 41.3696 41.3696l45.202285-45.202286c25.029486 18.914743 55.837257 34.947657 88.458972 46.4896l22.308571 187.201828a29.271771 29.271771 0 0 0 33.514057 25.453715c4.052114-0.629029 100.308114-15.959771 183.383772-72.586972 89.629257-61.118171 80.5888-210.753829 79.681828-223.056457 40.287086-34.435657 77.794743-71.943314 108.719543-102.912l8.192-8.206628c138.927543-138.927543 82.3296-462.350629 79.857372-476.0576z m-54.4768 30.880914c4.3008 31.451429 11.249371 95.4368 8.835657 165.493028-33.718857-13.1072-86.440229-55.1936-133.514972-108.1344-24.224914-27.2384-39.994514-49.751771-48.961828-65.7408a835.525486 835.525486 0 0 1 38.955885-0.936228c57.519543 0 107.885714 5.632 134.685258 9.3184zM118.608457 508.372114c8.235886-31.773257 25.263543-83.748571 56.539429-129.6384 24.532114-35.971657 78.7456-49.429943 121.914514-53.438171-25.819429 37.946514-45.143771 76.609829-50.936686 113.327543-4.330057 27.5456-3.247543 56.568686 1.667657 85.152914l-129.184914-15.403886z m528.603429 342.410972c-45.904457 31.290514-97.879771 48.318171-129.6384 56.539428l-15.784229-132.5056c15.520914 2.545371 30.880914 3.935086 45.6704 3.935086 12.478171 0 24.619886-0.9216 36.088686-2.750171 38.0928-6.0416 78.350629-26.8288 117.716114-54.242743-3.101257 44.090514-15.872 102.999771-54.052571 129.024z m188.181943-327.197257l-8.235886 8.235885c-64.877714 64.994743-173.4656 173.802057-252.796343 186.382629-54.023314 8.718629-130.384457-13.0048-179.960686-47.5136l148.538515-148.538514a29.257143 29.257143 0 1 0-41.3696-41.3696L352.753371 629.599086c-33.119086-46.504229-58.280229-121.709714-48.815542-181.891657 12.551314-79.594057 121.461029-188.328229 186.528914-253.279086l7.8848-7.8848c47.118629-47.104 125.2352-66.325943 198.495086-73.0112 12.4928 28.320914 40.0384 61.995886 58.7776 83.0464 43.578514 49.020343 106.378971 105.091657 153.717028 118.9888-5.895314 78.2336-25.175771 159.246629-73.947428 208.018286z" fill="#ffffff" p-id="2389"></path><path d="M486.2976 238.943086l-5.617371 5.617371c-52.677486 52.589714-132.271543 132.052114-143.023543 200.235886a14.628571 14.628571 0 1 0 28.8768 4.578743c9.289143-58.792229 87.8592-137.245257 134.816914-184.1152l5.632-5.632a14.613943 14.613943 0 1 0-20.6848-20.6848zM358.063543 810.788571c-35.781486 35.781486-120.817371 34.552686-168.711314 29.140115-5.4272-47.908571-6.641371-132.944457 29.140114-168.725943a29.257143 29.257143 0 1 0-41.3696-41.3696c-70.816914 70.802286-45.524114 223.934171-42.408229 241.152a29.242514 29.242514 0 0 0 23.581257 23.581257 487.862857 487.862857 0 0 0 81.744458 6.919314c53.189486 0 119.413029-9.347657 159.392914-49.327543a29.257143 29.257143 0 1 0-41.3696-41.3696zM663.625143 261.046857c-56.451657 0-102.4 45.948343-102.4 102.4s45.933714 102.4 102.4 102.4 102.4-45.948343 102.4-102.4-45.933714-102.4-102.4-102.4z m0 175.542857c-40.330971 0-73.142857-32.811886-73.142857-73.142857s32.811886-73.142857 73.142857-73.142857 73.142857 32.811886 73.142857 73.142857-32.811886 73.142857-73.142857 73.142857z" fill="#ffffff" p-id="2390"></path></svg>